<svg width="500" height="500" viewBox="0 0 500 500" fill="none" xmlns="http://www.w3.org/2000/svg">
  <rect width="500" height="500" fill="#121214"/>
  <rect x="114.19" y="72" width="270.513" height="37.3734" fill="#D9D9D9"/>
  <path fill-rule="evenodd" clip-rule="evenodd" d="M385.19 72.339L114 292.681C114 367.568 174.708 428.277 249.595 428.277C324.482 428.277 385.19 367.568 385.19 292.681V72.339ZM149.03 307.897C156.373 356.845 198.601 394.378 249.595 394.378C305.761 394.378 351.292 348.847 351.292 292.681V236.889C324.304 261.044 288.665 275.732 249.595 275.732C231.927 275.732 214.941 272.722 199.138 267.184L149.03 307.897ZM231.942 240.531C237.699 241.389 243.593 241.833 249.595 241.833C292.754 241.833 330.53 218.789 351.292 184.334V143.559L231.942 240.531Z" fill="white"/>
</svg>
